<svg width="87" height="32" viewBox="0 0 87 32" fill="none" xmlns="http://www.w3.org/2000/svg">
<path d="M10.3163 0.456055H15.8289L26.1059 31.1461H20.5146L17.9158 23.4952H8.1507L5.5913 31.1461H0L10.3163 0.456055ZM16.9314 19.3023L13.0726 6.63729L9.05633 19.3023H16.9314Z" fill="white"/>
<path d="M32.086 0.456055L39.016 11.7811L45.9067 0.456055H51.813L42.1267 16.0172L51.498 31.1461H45.5917L39.016 20.2533L32.401 31.1461H26.4553L35.8266 16.0172L26.1403 0.456055H32.086Z" fill="white"/>
<path d="M54.6277 31.1461V0.456055H60.0615V31.1461H54.6277Z" fill="#EC7979"/>
<path d="M86.8026 5.68633H77.8644V31.1461H72.4699V5.68633H63.5317V0.456055H86.8026V5.68633Z" fill="#EC7979"/>
</svg>
